<?xml version="1.0" encoding="utf-8"?>
<!-- Generator: Adobe Illustrator 23.0.5, SVG Export Plug-In . SVG Version: 6.00 Build 0)  -->
<svg version="1.1" id="Layer_1" xmlns="http://www.w3.org/2000/svg" xmlns:xlink="http://www.w3.org/1999/xlink" x="0px" y="0px"
	 viewBox="0 0 1890.2 1080" style="enable-background:new 0 0 1890.2 1080;" xml:space="preserve">
<style type="text/css">
	.st0{fill:url(#SVGID_1_);}
	.st1{fill:url(#SVGID_2_);}
	.st2{fill:url(#SVGID_3_);}
	.st3{fill:url(#SVGID_4_);}
	.st4{fill:url(#SVGID_5_);}
	.st5{fill:url(#SVGID_6_);}
	.st6{fill:url(#SVGID_7_);}
	.st7{fill:url(#SVGID_8_);}
	.st8{filter:url(#Adobe_OpacityMaskFilter);}
	.st9{filter:url(#Adobe_OpacityMaskFilter_1_);}
	.st10{mask:url(#SVGID_9_);fill:url(#SVGID_10_);}
	.st11{fill:url(#SVGID_11_);}
	.st12{fill:url(#SVGID_12_);}
	.st13{fill:#56BEBD;}
</style>
<g>
	<linearGradient id="SVGID_1_" gradientUnits="userSpaceOnUse" x1="945.575" y1="1009.48" x2="945.575" y2="18.27">
		<stop  offset="0" style="stop-color:#9A9A9A"/>
		<stop  offset="9.364340e-02" style="stop-color:#A2A2A2"/>
		<stop  offset="0.2383" style="stop-color:#B8B8B8"/>
		<stop  offset="0.415" style="stop-color:#DBDBDB"/>
		<stop  offset="0.447" style="stop-color:#E2E2E2"/>
		<stop  offset="1" style="stop-color:#C5C5C5"/>
	</linearGradient>
	<path class="st0" d="M1845.4,59.3c0-0.5-0.1-0.9-0.2-1.3c-0.1-0.5-0.1-0.9-0.2-1.4c-0.1-0.4-0.2-0.9-0.3-1.3
		c-0.2-0.7-0.3-1.4-0.5-2.1c-0.4-1.4-0.9-2.8-1.4-4.1c-0.3-0.7-0.6-1.3-0.9-2c-0.3-0.6-0.6-1.2-0.9-1.7c-0.3-0.6-0.6-1.1-0.9-1.7
		c-0.7-1.1-1.4-2.2-2.1-3.2c-0.4-0.6-0.9-1.2-1.4-1.8c-0.3-0.4-0.7-0.9-1.1-1.3c-0.4-0.4-0.7-0.8-1.1-1.3c-0.3-0.3-0.5-0.5-0.8-0.8
		c-0.5-0.5-1.1-1.1-1.6-1.6c-0.8-0.8-1.7-1.5-2.6-2.3c-0.3-0.2-0.5-0.4-0.8-0.6c-0.6-0.4-1.1-0.9-1.7-1.3c-0.3-0.2-0.6-0.4-0.9-0.7
		c-2.3-1.5-4.7-3-7.2-4.2c-0.3-0.2-0.7-0.3-1-0.5c-0.2-0.1-0.4-0.2-0.5-0.3c-0.4-0.2-0.8-0.3-1.1-0.5c-0.8-0.3-1.5-0.6-2.3-0.9
		c-1.2-0.5-2.4-0.9-3.6-1.2c-0.4-0.1-0.8-0.2-1.2-0.3c-0.4-0.1-0.8-0.2-1.2-0.3c-0.4-0.1-0.8-0.2-1.2-0.3c-0.4-0.1-0.8-0.2-1.3-0.3
		c-1.3-0.3-2.5-0.5-3.8-0.7c-0.4-0.1-0.9-0.1-1.3-0.2c-0.4-0.1-0.7-0.1-1.1-0.2c-0.1,0-0.2,0-0.3,0c-0.4,0-0.8-0.1-1.2-0.1
		c-0.4,0-0.9-0.1-1.3-0.1c-0.4,0-0.8-0.1-1.2-0.1c-0.4,0-0.8,0-1.2-0.1c-0.5,0-1,0-1.5,0c-0.5,0-1,0-1.5,0H100.5
		c-30.3,0-54.9,20.3-54.9,45.3v946h7.8V56.8c0-0.3,0-0.6,0-0.9c0-0.2,0-0.5,0-0.7c0.1-1.4,0.2-2.8,0.5-4.1c0.1-0.6,0.3-1.3,0.4-1.9
		c0.2-0.6,0.3-1.3,0.5-1.9c0.2-0.6,0.4-1.2,0.6-1.8c1.9-5.2,5.2-9.8,9.3-13.8c0.5-0.5,1-0.9,1.5-1.4c0.3-0.2,0.5-0.4,0.8-0.7
		c2.4-2,5-3.7,7.9-5.3c1-0.5,1.9-1,2.9-1.4c1-0.5,2-0.9,3-1.3c0,0,0,0,0,0c0.3-0.1,0.6-0.2,0.9-0.3c0.4-0.1,0.8-0.3,1.2-0.4v0
		c0.3-0.1,0.7-0.2,1.1-0.3c0.4-0.1,0.7-0.2,1.1-0.3c0.4-0.1,0.7-0.2,1.1-0.3c0.4-0.1,0.7-0.2,1.1-0.3c0.4-0.1,0.7-0.2,1.1-0.3
		c0.6-0.1,1.2-0.3,1.8-0.4c0.3-0.1,0.7-0.1,1-0.2c0.4-0.1,0.7-0.1,1.1-0.2c0.4,0,0.7-0.1,1.1-0.1c0.4-0.1,0.7-0.1,1.1-0.1
		c0.4,0,0.7-0.1,1.1-0.1c0.4,0,0.7-0.1,1.1-0.1c1.1-0.1,2.2-0.1,3.4-0.1h1690.3c0.5,0,1,0,1.5,0s1,0,1.5,0.1c0.5,0,1,0.1,1.5,0.1
		c0.5,0,1,0.1,1.5,0.1c0.4,0,0.8,0.1,1.2,0.1c0.4,0,0.8,0.1,1.2,0.2l1.1,0.2c0.4,0.1,0.8,0.1,1.1,0.2c0.8,0.1,1.5,0.3,2.2,0.5
		c0.4,0.1,0.8,0.2,1.1,0.3c0.4,0.1,0.7,0.2,1.1,0.3c0.6,0.2,1.1,0.3,1.7,0.5c1.9,0.6,3.8,1.3,5.6,2.1c1,0.5,2,0.9,2.9,1.4
		c1.3,0.7,2.5,1.4,3.7,2.2c0.6,0.4,1.2,0.8,1.7,1.2c0,0,0,0,0,0c0.8,0.6,1.7,1.2,2.5,1.9c0.3,0.2,0.5,0.4,0.8,0.7
		c0.5,0.5,1,0.9,1.5,1.4c6.1,5.8,10.2,13.2,11.2,21.3c0.1,1,0.2,2,0.3,3.1c0,0.4,0,0.7,0,1.1v952.2h7.9V60.7
		C1845.5,60.2,1845.4,59.8,1845.4,59.3z"/>
	<linearGradient id="SVGID_2_" gradientUnits="userSpaceOnUse" x1="945.5172" y1="63.5324" x2="945.5172" y2="11.7996">
		<stop  offset="0" style="stop-color:#3E3E3E"/>
		<stop  offset="0.2791" style="stop-color:#414141"/>
		<stop  offset="0.4461" style="stop-color:#494949"/>
		<stop  offset="0.5837" style="stop-color:#575757"/>
		<stop  offset="0.7052" style="stop-color:#6B6B6B"/>
		<stop  offset="0.816" style="stop-color:#868686"/>
		<stop  offset="0.9178" style="stop-color:#A5A5A5"/>
		<stop  offset="1" style="stop-color:#C5C5C5"/>
	</linearGradient>
	<path class="st1" d="M45.5,57.1c0-25,24.6-45.3,54.9-45.3h1690.3c30.3,0,54.8,20.3,54.8,45.3v3.6c-1.8-23.7-25.6-42.4-54.7-42.4
		H100.5c-30.3,0-54.9,20.3-54.9,45.3L45.5,57.1z"/>
	<g>
		<rect x="53.5" y="983" width="1784.1" height="26.5"/>
		<path d="M1837.6,56.1c0-1-0.1-2.1-0.3-3.1c-1.9-14.7-13.8-27-29.9-32.2c-0.6-0.2-1.1-0.3-1.7-0.5c-0.4-0.1-0.7-0.2-1.1-0.3
			c-0.4-0.1-0.7-0.2-1.1-0.3c-0.7-0.2-1.5-0.3-2.2-0.5c-0.4-0.1-0.8-0.1-1.1-0.2L1799,19c-0.4-0.1-0.8-0.1-1.2-0.2
			c-0.4,0-0.8-0.1-1.2-0.1c-0.5,0-1-0.1-1.5-0.1c-0.5,0-1-0.1-1.5-0.1c-0.5,0-1,0-1.5-0.1s-1,0-1.5,0H100.4c-1.1,0-2.3,0-3.4,0.1
			c-0.4,0-0.7,0.1-1.1,0.1c-0.4,0-0.7,0.1-1.1,0.1c-0.4,0-0.7,0.1-1.1,0.1c-0.4,0-0.7,0.1-1.1,0.1c-0.4,0.1-0.7,0.1-1.1,0.2
			c-0.3,0-0.7,0.1-1,0.2c-0.6,0.1-1.2,0.2-1.8,0.4c-0.4,0.1-0.8,0.2-1.1,0.3c-0.4,0.1-0.7,0.2-1.1,0.3c-0.4,0.1-0.7,0.2-1.1,0.3
			c-0.4,0.1-0.7,0.2-1.1,0.3c-0.4,0.1-0.7,0.2-1.1,0.3c-0.4,0.1-0.8,0.3-1.2,0.4C66,27.1,54.5,40.1,53.5,55.3c0,0.2,0,0.5,0,0.7
			c0,0.3,0,0.6,0,0.9V983h1784.1V57.3C1837.6,56.9,1837.6,56.5,1837.6,56.1z M1800.7,960.1H90.4V74.8h1710.3V960.1z"/>
		<polygon points="1845.5,1009.5 1845.5,1011.9 1837.6,1011.9 1837.6,1011.9 53.5,1011.9 53.5,1011.9 45.6,1011.9 45.6,1009.5 		"/>
	</g>
</g>
<g>
	<g>
		<g>
			<linearGradient id="SVGID_3_" gradientUnits="userSpaceOnUse" x1="15.6552" y1="1027.3616" x2="944.6552" y2="1027.3616">
				<stop  offset="0" style="stop-color:#929292"/>
				<stop  offset="1.390270e-02" style="stop-color:#C1C1C1"/>
				<stop  offset="2.710927e-02" style="stop-color:#B2B2B2"/>
				<stop  offset="4.865940e-02" style="stop-color:#9C9C9C"/>
				<stop  offset="7.067415e-02" style="stop-color:#A4A4A4"/>
				<stop  offset="9.091140e-02" style="stop-color:#B0B0B0"/>
				<stop  offset="1" style="stop-color:#CFCFCF"/>
			</linearGradient>
			<rect x="15.7" y="1013.3" class="st2" width="929" height="28.1"/>
			<linearGradient id="SVGID_4_" gradientUnits="userSpaceOnUse" x1="15.6552" y1="1012.6009" x2="1873.6552" y2="1012.6009">
				<stop  offset="5.456970e-03" style="stop-color:#F7F7F7"/>
				<stop  offset="6.385440e-02" style="stop-color:#D0D0D0"/>
				<stop  offset="0.5025" style="stop-color:#F7F7F7"/>
				<stop  offset="0.8664" style="stop-color:#D0D0D0"/>
				<stop  offset="0.8728" style="stop-color:#D2D2D2"/>
				<stop  offset="0.9501" style="stop-color:#E8E8E8"/>
				<stop  offset="1" style="stop-color:#F0F0F0"/>
			</linearGradient>
			<rect x="15.7" y="1011.9" class="st3" width="1858" height="1.4"/>
			<linearGradient id="SVGID_5_" gradientUnits="userSpaceOnUse" x1="944.6552" y1="1027.3616" x2="1873.6552" y2="1027.3616">
				<stop  offset="0" style="stop-color:#CFCFCF"/>
				<stop  offset="0.9091" style="stop-color:#B0B0B0"/>
				<stop  offset="0.9293" style="stop-color:#A4A4A4"/>
				<stop  offset="0.9513" style="stop-color:#9C9C9C"/>
				<stop  offset="0.9729" style="stop-color:#B2B2B2"/>
				<stop  offset="0.9861" style="stop-color:#C1C1C1"/>
				<stop  offset="1" style="stop-color:#929292"/>
			</linearGradient>
			<rect x="944.7" y="1013.3" class="st4" width="929" height="28.1"/>
		</g>
		<g>
			<linearGradient id="SVGID_6_" gradientUnits="userSpaceOnUse" x1="15.6552" y1="1026.5313" x2="944.6552" y2="1026.5313">
				<stop  offset="0" style="stop-color:#666666"/>
				<stop  offset="1.390270e-02" style="stop-color:#D5D5D5"/>
				<stop  offset="2.104948e-02" style="stop-color:#BEBEBE"/>
				<stop  offset="3.965440e-02" style="stop-color:#878787"/>
				<stop  offset="4.865940e-02" style="stop-color:#717171"/>
				<stop  offset="5.727778e-02" style="stop-color:#797979"/>
				<stop  offset="7.067029e-02" style="stop-color:#8F8F8F"/>
				<stop  offset="8.708397e-02" style="stop-color:#B3B3B3"/>
				<stop  offset="9.091140e-02" style="stop-color:#BCBCBC"/>
				<stop  offset="1" style="stop-color:#F0F0F0"/>
			</linearGradient>
			<rect x="15.7" y="1013.3" class="st5" width="929" height="26.5"/>
			<linearGradient id="SVGID_7_" gradientUnits="userSpaceOnUse" x1="944.6552" y1="1026.5313" x2="1873.6552" y2="1026.5313">
				<stop  offset="0" style="stop-color:#F0F0F0"/>
				<stop  offset="0.9091" style="stop-color:#BCBCBC"/>
				<stop  offset="0.9129" style="stop-color:#B3B3B3"/>
				<stop  offset="0.9293" style="stop-color:#8F8F8F"/>
				<stop  offset="0.9427" style="stop-color:#797979"/>
				<stop  offset="0.9513" style="stop-color:#717171"/>
				<stop  offset="0.9603" style="stop-color:#878787"/>
				<stop  offset="0.979" style="stop-color:#BEBEBE"/>
				<stop  offset="0.9861" style="stop-color:#D5D5D5"/>
				<stop  offset="1" style="stop-color:#666666"/>
			</linearGradient>
			<rect x="944.7" y="1013.3" class="st6" width="929" height="26.5"/>
		</g>
		<linearGradient id="SVGID_8_" gradientUnits="userSpaceOnUse" x1="812.4272" y1="1022.6723" x2="1076.8831" y2="1022.6723">
			<stop  offset="0" style="stop-color:#9F9F9F"/>
			<stop  offset="3.953490e-02" style="stop-color:#ADADAD"/>
			<stop  offset="0.514" style="stop-color:#E5E5E5"/>
			<stop  offset="0.9628" style="stop-color:#ADADAD"/>
			<stop  offset="1" style="stop-color:#9F9F9F"/>
		</linearGradient>
		<path class="st7" d="M1076.9,1011.9c0,5.9-2.4,11.3-6.3,15.2c-3.9,3.9-9.3,6.3-15.2,6.3H833.9c-11.9,0-21.5-9.6-21.5-21.5H1076.9z
			"/>
		<defs>
			<filter id="Adobe_OpacityMaskFilter" filterUnits="userSpaceOnUse" x="811.4" y="1011.9" width="266.5" height="23.1">
				<feFlood  style="flood-color:white;flood-opacity:1" result="back"/>
				<feBlend  in="SourceGraphic" in2="back" mode="normal"/>
			</filter>
		</defs>
		<mask maskUnits="userSpaceOnUse" x="811.4" y="1011.9" width="266.5" height="23.1" id="SVGID_9_">
			<g class="st8">
				<defs>
					<filter id="Adobe_OpacityMaskFilter_1_" filterUnits="userSpaceOnUse" x="811.4" y="1011.9" width="266.5" height="23.1">
						<feFlood  style="flood-color:white;flood-opacity:1" result="back"/>
						<feBlend  in="SourceGraphic" in2="back" mode="normal"/>
					</filter>
				</defs>
				<mask maskUnits="userSpaceOnUse" x="811.4" y="1011.9" width="266.5" height="23.1" id="SVGID_9_">
					<g class="st9">
					</g>
				</mask>
				<linearGradient id="SVGID_10_" gradientUnits="userSpaceOnUse" x1="811.3846" y1="1023.4658" x2="1077.9258" y2="1023.4658">
					<stop  offset="4.122200e-04" style="stop-color:#CCCCCC"/>
					<stop  offset="0.5247" style="stop-color:#B3B3B3"/>
					<stop  offset="0.7671" style="stop-color:#B5B5B5"/>
					<stop  offset="0.891" style="stop-color:#BDBDBD"/>
					<stop  offset="0.988" style="stop-color:#CACACA"/>
					<stop  offset="1" style="stop-color:#CCCCCC"/>
				</linearGradient>
				<path class="st10" d="M1076.9,1011.9c0,5.9-2.4,11.3-6.3,15.2c-3.9,3.9-9.3,6.3-15.2,6.3H834c-11.9,0-21.5-9.6-21.5-21.5h-1.1
					v1.6c0,11.9,9.6,21.5,21.5,21.5h223.5c11.9,0,21.5-9.6,21.5-21.5v-1.6H1076.9z"/>
			</g>
		</mask>
		<linearGradient id="SVGID_11_" gradientUnits="userSpaceOnUse" x1="811.3851" y1="1023.47" x2="1077.9252" y2="1023.47">
			<stop  offset="4.122200e-04" style="stop-color:#F6F6F6"/>
			<stop  offset="0.5247" style="stop-color:#F7F7F7"/>
			<stop  offset="1" style="stop-color:#F6F6F6"/>
		</linearGradient>
		<path class="st11" d="M1076.9,1011.9c0,0.5,0,0.9-0.1,1.4c0,0.3,0,0.5-0.1,0.8c-0.1,0.7-0.2,1.4-0.3,2.1c-0.2,0.9-0.4,1.8-0.7,2.7
			c-0.1,0.2-0.1,0.4-0.2,0.6c-0.1,0.3-0.2,0.6-0.4,0.9c-0.1,0.3-0.2,0.5-0.3,0.8c0,0,0,0.1,0,0.1c-0.1,0.3-0.3,0.6-0.5,0.9
			c-0.2,0.3-0.3,0.6-0.5,0.9c-0.7,1.2-1.5,2.3-2.5,3.3c-0.2,0.3-0.5,0.5-0.7,0.8h0c-3.9,3.9-9.3,6.3-15.2,6.3H833.9
			c-5.9,0-11.3-2.4-15.2-6.3c-0.2-0.2-0.4-0.5-0.7-0.7c-0.2-0.2-0.4-0.5-0.6-0.7c-0.6-0.7-1.2-1.5-1.7-2.3c0,0,0-0.1,0-0.1
			c-0.2-0.3-0.3-0.5-0.5-0.8c-0.2-0.3-0.3-0.6-0.5-0.8c-0.1-0.3-0.3-0.6-0.4-0.9c-0.1-0.3-0.3-0.6-0.4-0.9c-0.1-0.3-0.2-0.6-0.3-0.9
			c-0.6-1.8-1-3.8-1.2-5.8c0-0.2,0-0.5,0-0.7c0-0.2,0-0.5,0-0.7h-1.1v1.6c0,11.9,9.7,21.5,21.5,21.5h223.5
			c11.9,0,21.5-9.6,21.5-21.5v-1.6H1076.9z"/>
	</g>
	<linearGradient id="SVGID_12_" gradientUnits="userSpaceOnUse" x1="944.6552" y1="1066.2004" x2="944.6552" y2="1041.421">
		<stop  offset="0" style="stop-color:#565656"/>
		<stop  offset="0.7389" style="stop-color:#B9B9B9"/>
		<stop  offset="0.8472" style="stop-color:#B6B6B6"/>
		<stop  offset="0.9363" style="stop-color:#ACACAC"/>
		<stop  offset="1" style="stop-color:#9F9F9F"/>
	</linearGradient>
	<path class="st12" d="M15.7,1041.4c65.3,16.4,133.4,24.8,201.8,24.8h727.2h727.2c68.4,0,136.5-8.4,201.8-24.8h-929H15.7z"/>
</g>
<path class="st13" d="M90.4,229.3v730.8c102.2,0,204.4,0,306.6,0c16.2-19.5,69.9-89.1,69.8-189.9c-0.1-109.6-63.7-212.4-162.3-264
	C304.4,506.2,160.8,439.6,90.4,229.3z"/>
</svg>
